<?xml version="1.0" encoding="UTF-8" standalone="no"?>
<!DOCTYPE svg PUBLIC "-//W3C//DTD SVG 1.1//EN" "http://www.w3.org/Graphics/SVG/1.1/DTD/svg11.dtd">
<svg width="100%" height="100%" viewBox="0 0 500 64" version="1.1" xmlns="http://www.w3.org/2000/svg" xmlns:xlink="http://www.w3.org/1999/xlink" xml:space="preserve" xmlns:serif="http://www.serif.com/" style="fill-rule:evenodd;clip-rule:evenodd;stroke-linejoin:round;stroke-miterlimit:2;">
    <g transform="matrix(1,0,0,1,-550,0)">
        <rect id="Reversed" x="550" y="0" width="500" height="63.08" style="fill:none;"/>
        <clipPath id="_clip1">
            <rect id="Reversed1" serif:id="Reversed" x="550" y="0" width="500" height="63.08"/>
        </clipPath>
        <g clip-path="url(#_clip1)">
            <g transform="matrix(1,0,0,1,550.704,-218.323)">
                <path d="M50.953,222.344L0.12,222.344C0.12,222.344 9.943,248.219 50.953,248.219L50.953,222.344" style="fill:white;fill-rule:nonzero;"/>
                <path d="M55.438,218.318L55.438,252.25L64.234,252.25C64.047,257.734 61.906,265.073 53.516,271.125L46.469,271.125L46.469,281.302L116.948,281.302L116.948,271.125L109.901,271.125C101.51,265.073 99.37,257.734 99.182,252.25L105.203,252.25C105.203,233.375 121.224,232.099 121.224,232.099L134.891,232.099L134.891,218.318L55.438,218.318" style="fill:white;fill-rule:nonzero;"/>
                <g transform="matrix(1,0,0,1,151.596,265.133)">
                    <g>
                        <path d="M55.875,0L41.729,0L38.604,-5.458L17.625,-5.458L14.479,0L0.354,0L21.625,-33.25L34.583,-33.25L55.875,0ZM33.896,-13.687L28.125,-23.771L22.333,-13.687L33.896,-13.687Z" style="fill:white;fill-rule:nonzero;"/>
                    </g>
                </g>
                <g transform="matrix(1,0,0,1,207.806,265.133)">
                    <g>
                        <path d="M53.063,0L36.458,0L17.667,-22.521L17.667,0L3.708,0L3.708,-33.271L20.313,-33.271L39.104,-10.875L39.104,-33.271L53.063,-33.271L53.063,0Z" style="fill:white;fill-rule:nonzero;"/>
                    </g>
                </g>
                <g transform="matrix(1,0,0,1,264.572,265.133)">
                    <g>
                        <path d="M31.938,0L18.979,0L0.354,-33.25L14.479,-33.25L25.479,-9.479L36.438,-33.25L50.583,-33.25L31.938,0Z" style="fill:white;fill-rule:nonzero;"/>
                    </g>
                </g>
                <g transform="matrix(1,0,0,1,315.497,265.133)">
                    <g>
                        <rect x="3.708" y="-33.271" width="13.958" height="33.271" style="fill:white;fill-rule:nonzero;"/>
                    </g>
                </g>
                <g transform="matrix(1,0,0,1,336.868,265.133)">
                    <g>
                        <path d="M42.542,0L3.708,0L3.708,-33.271L17.667,-33.271L17.667,-8.229L42.542,-8.229L42.542,0Z" style="fill:white;fill-rule:nonzero;"/>
                    </g>
                </g>
                <g transform="matrix(1,0,0,1,392.104,265.133)">
                    <g>
                        <path d="M25.146,0.708C16.922,0.708 10.875,-0.979 7,-4.354C3.568,-7.339 1.854,-11.422 1.854,-16.604C1.854,-21.781 3.568,-25.865 7,-28.854C10.875,-32.229 16.922,-33.917 25.146,-33.917C29.979,-33.917 33.969,-33.359 37.125,-32.25C40.276,-31.151 42.719,-29.646 44.458,-27.729C46.208,-25.812 47.365,-23.615 47.938,-21.146L33.271,-21.146C31.797,-23.729 29.089,-25.021 25.146,-25.021C21.781,-25.021 19.302,-24.042 17.708,-22.083C16.443,-20.542 15.813,-18.714 15.813,-16.604C15.813,-14.479 16.443,-12.646 17.708,-11.104C19.302,-9.156 21.781,-8.187 25.146,-8.187C29.089,-8.187 31.797,-9.484 33.271,-12.083L47.938,-12.083C47.365,-9.594 46.208,-7.396 44.458,-5.479C42.719,-3.562 40.276,-2.047 37.125,-0.937C33.969,0.156 29.979,0.708 25.146,0.708Z" style="fill:white;fill-rule:nonzero;"/>
                    </g>
                </g>
                <g transform="matrix(1,0,0,1,441.893,265.133)">
                    <g>
                        <path d="M25.146,0.708C16.922,0.708 10.875,-0.979 7,-4.354C3.568,-7.354 1.854,-11.443 1.854,-16.625C1.854,-21.792 3.568,-25.865 7,-28.854C10.875,-32.24 16.922,-33.937 25.146,-33.937C33.365,-33.937 39.422,-32.24 43.313,-28.854C46.74,-25.865 48.458,-21.792 48.458,-16.625C48.458,-11.443 46.74,-7.354 43.313,-4.354C39.422,-0.979 33.365,0.708 25.146,0.708ZM25.146,-8.208C28.521,-8.208 30.99,-9.172 32.563,-11.104C33.839,-12.656 34.479,-14.5 34.479,-16.625C34.479,-18.734 33.839,-20.568 32.563,-22.125C30.99,-24.068 28.521,-25.042 25.146,-25.042C21.781,-25.042 19.302,-24.068 17.708,-22.125C16.443,-20.568 15.813,-18.734 15.813,-16.625C15.813,-14.5 16.443,-12.656 17.708,-11.104C19.302,-9.172 21.781,-8.208 25.146,-8.208Z" style="fill:white;fill-rule:nonzero;"/>
                    </g>
                </g>
                <g transform="matrix(1,0,0,1,492.192,265.133)">
                    <g>
                        <rect x="0.688" y="-6.396" width="6.417" height="6.396" style="fill:white;fill-rule:nonzero;"/>
                    </g>
                </g>
            </g>
        </g>
    </g>
</svg>
